<svg version="1.2" xmlns="http://www.w3.org/2000/svg" viewBox="0 0 1080 1080" width="1080"
    height="1080">
    <title>bantel logo</title>
    <defs>
        <clipPath clipPathUnits="userSpaceOnUse" id="cp1">
            <path d="m24 82h1031.88v915.29h-1031.88z" />
        </clipPath>
    </defs>
    <style>
        .s0 { fill: #ffffff }
        .s1 { fill: #b2d817 }
    </style>
    <g id="Grupo 398">
        <g id="Grupo 1" clip-path="url(#cp1)">
            <path id="Trazado 1" class="s0"
                d="m792.6 966.9v30.4h-18.2q-19.5 0-30.4-9.5-10.9-9.6-10.9-31.2v-46.5h-14.3v-29.8h14.3v-28.5h35.8v28.5h23.5v29.8h-23.5v46.9q0 5.3 2.5 7.6 2.5 2.3 8.4 2.3z" />
            <path id="Trazado 2" class="s0"
                d="m865.2 963.7l25.3-83.4h38.2l-41.5 117h-44.3l-41.5-117h38.4z" />
            <path id="Trazado 3" class="s0"
                d="m1050.1 940h-36.5v37.4h-34v-37.4h-36.4v-32h36.4v-37.6h34v37.6h36.5z" />
            <path id="Trazado 4" class="s1"
                d="m871.6 306.5c-30-66-78-122-138.8-161.9-62.4-41-134.9-62.6-209.9-62.6-150.5 0-287.6 88.7-349.3 226-2.6 5.7-2.8 12.1-0.6 18 2.2 5.8 6.6 10.5 12.3 13 3.1 1.4 6.3 2.1 9.7 2.1 9.2 0 17.6-5.4 21.4-13.8 54.2-120.5 174.5-198.3 306.5-198.3 131.4 0 251.5 77.3 306 196.9 2.6 5.7 7.2 10.1 13.1 12.2 5.9 2.3 12.3 2.1 18-0.6 5.7-2.5 10-7.2 12.2-13.1 2.2-5.9 2-12.2-0.6-17.9z" />
            <path id="Trazado 5" fill-rule="evenodd" class="s0"
                d="m480.1 542.3v9c0 7.2-4.5 11.8-11.7 11.8h-13.7c-13.4 0-22.5-4-27.3-11.7-13.1 8.9-34.7 13.3-65.6 13.3-25.9 0-45.3-3.7-57.9-10.8-13.5-7.7-20.3-20.2-20.3-37.4 0-9.4 2.2-17.5 6.5-23.9 4.4-6.5 10.9-11.3 19.3-14.4 7.8-2.9 16.1-4.9 24.8-6 8.5-1.1 18.9-1.6 31-1.6h31c16 0 24.1-0.6 28.2-1.2-0.2-5.6-3.4-9.9-10.2-13.6-7.8-4.1-20.3-6.2-37.2-6.2-23.6 0-44 4.2-60.7 12.7-6.1 2.9-11.8 1.3-15.5-4.1l-4.7-6.6c-4.1-5.8-3-12 2.8-16.2 7.8-5.4 18.9-10 32.8-13.7 13.8-3.7 29.9-5.5 47.9-5.5 15.1 0 28.2 1.5 38.9 4.4 11.1 3.1 19.7 7.4 25.6 12.9 5.7 5.4 9.9 11.2 12.5 17.1 2.5 5.9 3.8 12.4 3.8 19.3v56.2c0 4.2 1.3 4.4 3.8 4.4h4.2c7.2 0 11.7 4.5 11.7 11.8zm-55.7-42.6c-6.9 1.4-16.2 2.1-28.2 2.1h-31c-18 0-30.6 1.2-37.7 3.5-5.5 1.8-7.9 5.1-7.9 11.2 0 6 2.4 9.4 7.9 11.2 7.1 2.4 18.6 3.6 34.3 3.6 17.5 0 31.6-1.2 41.7-3.7 8.7-2.1 15.7-5.5 20.9-10.1z" />
            <path id="Trazado 6" class="s0"
                d="m661.1 434c-13.1-11.8-34.7-17.8-64.3-17.8-30.3 0-53.8 5.8-69.9 17.1v-3.5c0-7.2-4.5-11.7-11.7-11.7h-12.7c-7.2 0-11.7 4.5-11.7 11.7v121.5c0 7.3 4.5 11.8 11.7 11.8h12.7c7.2 0 11.7-4.5 11.7-11.8v-63.1c0-25.8 21-38.4 64.2-38.4 19.6 0 33.9 2.9 42.2 8.7 7.8 5.3 11.7 15.3 11.7 29.7v63.1c0 7.3 4.5 11.8 11.7 11.8h12.6c7.3 0 11.7-4.5 11.7-11.8v-63.1c0-24.1-6.7-42.3-19.9-54.2z" />
            <path id="Trazado 7" class="s0"
                d="m795.3 418.1h-30.3v-39.2c0-7.2-4.5-11.8-11.7-11.8h-12.6c-7.2 0-11.7 4.6-11.7 11.8v39.2h-25.1c-7.2 0-11.7 4.5-11.7 11.7v9.8c0 7.3 4.5 11.8 11.7 11.8h25.1v78.1c0 22.5 12.4 34.9 35.1 34.9 13.7 0 25.5-2 34.9-6 5.8-2.7 8.3-7.8 6.9-14.3l-1.6-7.5c-0.9-3.7-2.7-6.3-5.3-7.7-2.6-1.5-5.9-1.7-9.3-0.6-5 1.5-10.7 2.2-17 2.2-5.7 0-7.7-2-7.7-7.6v-71.5h30.3c7.2 0 11.7-4.5 11.7-11.8v-9.8c0-7.2-4.5-11.7-11.7-11.7z" />
            <path id="Trazado 8" fill-rule="evenodd" class="s0"
                d="m1009.2 490.3c0 8.9-5.3 14.2-14.3 14.2h-139.5c2.5 8.7 7.3 14.9 14.9 18.9 9.8 5.2 24.4 7.9 43.4 7.9 24.9 0 44.1-3.9 57.1-11.5 5.3-3.1 10.9-3.1 16.2 0l8 5.1c4.5 2.7 5.7 5.9 5.9 8.1 0.4 3.2-1 6.3-4 9.3-16 15-44 22.6-83.2 22.6-63.7 0-96-25.1-96-74.6 0-49.3 32.3-74.4 96-74.4 32.1 0 56.3 6.6 71.8 19.7 15.7 13.2 23.7 31.6 23.7 54.7zm-37.6-15.8c-2.5-7.9-7.3-13.7-14.5-17.4-9.6-5-24.2-7.5-43.4-7.5-19.2 0-33.8 2.5-43.3 7.5-7.2 3.7-12 9.5-14.5 17.4z" />
            <path id="Trazado 9" class="s0"
                d="m1019.9 367.9c0-0.4 0.3-0.8 0.8-0.8h34.4c0.4 0 0.8 0.4 0.8 0.8v194.4c0 0.4-0.4 0.8-0.8 0.8h-34.4c-0.5 0-0.8-0.4-0.8-0.8z" />
            <path id="Trazado 10" fill-rule="evenodd" class="s0"
                d="m272.9 501.8c0 27.8-13.4 61-77.2 61l-171.7-0.1v-197.8h166.2c12.4 0 23.5 1.6 32.9 4.9 9.9 3.4 17.8 8.3 23.3 14.6 5.2 5.9 9 12.3 11.3 18.8 2.4 6.5 3.6 13.5 3.6 20.9 0 10.8-4.2 21-12.5 30.4 16 10.1 24.1 26 24.1 47.3zm-211.3-65h146.5c8.9 0 16.1-7.3 16.1-16.2 0-8.9-7.2-16.1-16.1-16.1h-146.5zm170.6 62c0-11.8-9.6-21.5-21.5-21.5h-148.5v43h148.5c11.9 0 21.5-9.6 21.5-21.5z" />
            <path id="Trazado 11" fill-rule="evenodd" class="s1"
                d="m907.1 674.7c0 14.5-11.8 26.3-26.4 26.3-6.6 0-12.6-2.4-17.2-6.4q-0.2-0.2-0.3-0.3-0.2-0.2-0.4-0.4c-3.3-2.9-5.8-6.7-7.2-10.9-5.9 1.1-14.2 4.5-24.7 13.1q0 0-0.1 0c-5.1 5.2-9.2 9.9-11.6 12.7q-0.1 0.2-0.2 0.3c-0.6 0.7-1.2 1.4-1.8 2.1q-0.2 0.3-0.2 0.3c-24.2 28.7-52.5 53.8-84 74.4-62.2 40.5-134.4 61.9-208.9 61.9-74.5 0-146.8-21.4-208.9-61.9-60.5-39.5-108.5-94.9-138.8-160.3-5.4-11.8-0.3-25.7 11.4-31.2 5.7-2.6 12.1-2.9 18-0.7 5.9 2.2 10.6 6.5 13.2 12.2 54.8 118.4 174.6 195 305.1 195 96.8 0 188.5-41.8 252.6-114.7h-0.1c0 0 5.4-5.9 10.8-14.2v-0.1c8.6-15.3 10.6-26.3 10.6-33.1-13.9-1-24.8-12.6-24.8-26.7 0-14.7 12-26.7 26.8-26.7 14.7 0 26.7 12 26.7 26.7 0 9-4.4 16.9-11.2 21.8 0.1 3.7-1.3 22.1-5.8 34.5l21.4-27.7c-2.8-4.2-4.4-9.2-4.4-14.6 0-14.5 11.7-26.2 26.1-26.2 14.5 0 26.2 11.7 26.2 26.2 0 14.4-11.7 26.1-26.2 26.1-3.3 0-6.5-0.6-9.5-1.8l-21.6 27.9c0 0 19.6-11.9 34.1-12.1 3.5-10.4 13.4-17.9 24.9-17.9 14.6 0 26.4 11.8 26.4 26.4zm-65.5-47.3c0.4 3.2 1.8 5.7 4.2 7.6 2.5 1.9 5.3 2.7 8.6 2.3 2.8-0.4 5.4-1.8 7.3-4.2l0.4-0.6c1.6-2.2 2.3-4.9 1.9-7.9-0.4-3-1.8-5.5-4.2-7.5-2-1.5-4.4-2.3-6.9-2.3-0.6 0-1.2 0-1.7 0.1-2.8 0.3-5.4 1.8-7.2 4.1-1.9 2.5-2.7 5.3-2.4 8.4zm-52.6-13.7c0.4 3.2 1.8 5.7 4.2 7.6 2.5 1.9 5.3 2.7 8.6 2.3 2.8-0.4 5.4-1.8 7.3-4.2l0.5-0.6c1.5-2.2 2.2-4.9 1.8-7.9-0.4-3-1.8-5.5-4.2-7.5-2-1.5-4.4-2.3-6.9-2.3-0.6 0-1.1 0-1.7 0.1-2.8 0.3-5.3 1.8-7.2 4.1-1.9 2.5-2.7 5.3-2.4 8.4zm102.5 59.4c-0.4-3-1.8-5.6-4.2-7.5-2-1.5-4.4-2.3-6.9-2.3-0.6 0-1.2 0-1.8 0.1-2.7 0.3-5.3 1.8-7.1 4.1-2 2.5-2.8 5.3-2.4 8.3 0.4 3.3 1.8 5.8 4.2 7.7 2.5 1.9 5.3 2.7 8.5 2.3 2.9-0.4 5.5-1.8 7.3-4.2l0.5-0.6c1.6-2.2 2.2-4.9 1.9-7.9z" />
        </g>
    </g>
</svg>