<svg width="28" height="28" viewBox="0 0 28 28" fill="none" xmlns="http://www.w3.org/2000/svg">
<circle cx="13.9999" cy="7.53846" r="6.28846" stroke="white" stroke-width="2.5"/>
<path fill-rule="evenodd" clip-rule="evenodd" d="M3.37539 23.5991C3.12002 24.2157 2.91941 24.8517 2.77503 25.5H14L25.225 25.5C25.0806 24.8517 24.88 24.2157 24.6246 23.5991C24.0467 22.2039 23.1996 20.9361 22.1317 19.8683C21.0639 18.8004 19.7961 17.9533 18.4009 17.3754C17.0056 16.7975 15.5102 16.5 14 16.5C12.4898 16.5 10.9944 16.7975 9.59914 17.3754C8.2039 17.9533 6.93615 18.8004 5.86827 19.8683C4.8004 20.9361 3.95331 22.2039 3.37539 23.5991ZM27.775 25.5C27.9243 26.323 28 27.1596 28 28H25.5L14 28H2.5H0C0 27.1596 0.0756664 26.323 0.225023 25.5C0.402407 24.5226 0.683731 23.5646 1.06569 22.6424C1.76925 20.9439 2.80049 19.4005 4.10051 18.1005C5.40053 16.8005 6.94387 15.7693 8.64243 15.0657C10.341 14.3621 12.1615 14 14 14C15.8385 14 17.659 14.3621 19.3576 15.0657C21.0561 15.7693 22.5995 16.8005 23.8995 18.1005C25.1995 19.4005 26.2307 20.9439 26.9343 22.6424C27.3163 23.5646 27.5976 24.5226 27.775 25.5Z" fill="white"/>
</svg>
