<svg width="26" height="26" viewBox="0 0 26 26" fill="none" xmlns="http://www.w3.org/2000/svg">
<circle cx="13" cy="7" r="6.25" stroke="white" stroke-width="1.5"/>
<path fill-rule="evenodd" clip-rule="evenodd" d="M2.37539 21.5991C1.98983 22.53 1.7291 23.5054 1.59825 24.5H13L24.4018 24.5C24.2709 23.5054 24.0102 22.53 23.6246 21.5991C23.0467 20.2039 22.1996 18.9361 21.1317 17.8683C20.0639 16.8004 18.7961 15.9533 17.4009 15.3754C16.0056 14.7975 14.5102 14.5 13 14.5C11.4898 14.5 9.99438 14.7975 8.59914 15.3754C7.2039 15.9533 5.93615 16.8004 4.86827 17.8683C3.8004 18.9361 2.95331 20.2039 2.37539 21.5991ZM25.9132 24.5C25.9709 24.9969 26 25.4977 26 26H24.5L13 26H1.5H0C0 25.4977 0.0291061 24.9969 0.0868282 24.5C0.225302 23.3079 0.528463 22.1383 0.989567 21.0251C1.64288 19.4479 2.60045 18.0148 3.80761 16.8076C5.01477 15.6005 6.44788 14.6429 8.02512 13.9896C9.60235 13.3363 11.2928 13 13 13C14.7072 13 16.3977 13.3363 17.9749 13.9896C19.5521 14.6429 20.9852 15.6005 22.1924 16.8076C23.3996 18.0148 24.3571 19.4479 25.0104 21.0251C25.4715 22.1383 25.7747 23.3079 25.9132 24.5Z" fill="white"/>
</svg>
