<svg width="30" height="30" viewBox="0 0 30 30" fill="none" xmlns="http://www.w3.org/2000/svg">
<path d="M15 29L4.65754 17.862C2.30657 15.3301 1 12.0029 1 8.5479V8.5479C1 7.13377 1.39432 5.74764 2.13866 4.54525L2.2176 4.41773C2.72763 3.59383 3.47143 2.94047 4.3542 2.54091L5.07973 2.21252C6.80173 1.43311 8.78061 1.34197 10.5731 1.94177V1.94177C11.8501 2.36909 12.9235 3.29265 13.5239 4.49805L15 7.46154" stroke="white" stroke-width="1.5"/>
<path d="M14.5 29L25.2469 17.8255C27.6549 15.3216 29 11.9827 29 8.50878V8.50878C29 7.12022 28.6128 5.75916 27.8819 4.57851L27.7824 4.41773C27.2724 3.59383 26.5286 2.94047 25.6458 2.54091L24.8993 2.20301C23.1908 1.42971 21.2531 1.33068 19.4747 1.92578V1.92578C18.1611 2.36532 17.0914 3.3345 16.5248 4.59846L15 8" stroke="white" stroke-width="1.5"/>
</svg>
