<svg width="32" height="30" viewBox="0 0 32 30" fill="none" xmlns="http://www.w3.org/2000/svg">
<path d="M16.5 28.4815L5.58826 17.1656C3.2863 14.7784 2 11.5914 2 8.27505V8.27505C2 6.91062 2.39229 5.57496 3.13011 4.42723L3.23532 4.26357C3.73391 3.48799 4.45108 2.87747 5.29631 2.50907L6.11739 2.1512C7.81945 1.40934 9.73375 1.31421 11.501 1.88365L11.5543 1.90083C12.8558 2.32021 13.9388 3.23715 14.567 4.45172L16 7.22222" stroke="white" stroke-width="2.5"/>
<path d="M15 29L26.1861 17.7565C28.6288 15.3013 30 11.9789 30 8.51558V8.51558C30 7.12414 29.6012 5.76185 28.8508 4.59009L28.724 4.39203C28.207 3.58472 27.4623 2.94875 26.584 2.56448L25.7445 2.19718C23.9817 1.42589 21.9857 1.33078 20.1549 1.92297V1.92297C18.7924 2.3637 17.6582 3.3413 17.0275 4.627L15.5 7.74074" stroke="white" stroke-width="2.5"/>
</svg>
