<svg version="1.2" xmlns="http://www.w3.org/2000/svg" viewBox="0 0 256 256" width="256" height="256">
	<title>icon</title>
	<style>
		.s0 { fill: #ffffff } 
	</style>
	<g id="notification-alert-svgrepo-com copy">
		<path id="Shape" fill-rule="evenodd" class="s0" d="m96.3 211.1v-5.8h-43.9c-14.6 0-26.4-11.8-26.4-26.4v-4.4c0-11.4 6.4-21.8 16.6-26.9 4.5-2.2 7.6-6.7 8-11.7l5.2-57.6c2-21.9 13.9-41.8 32.2-54.1 18.4-12.2 41.3-15.5 62.4-8.8-3.2 5-5.7 10.4-7.5 16.1-4.7-1.3-9.5-1.9-14.4-1.9-28.7-0.1-52.7 21.8-55.1 50.4l-5.2 57.4c-1 11.2-7.7 21-17.7 26-4.3 2-6.9 6.4-6.9 11.1v4.4c0 4.9 3.9 8.8 8.8 8.8h152.2c4.9 0 8.8-3.9 8.8-8.8v-4.4c0-4.7-2.6-9.1-6.8-11.1-10.1-5-16.8-14.8-17.8-26l-2.3-25.5c5.8 1.7 11.8 2.6 17.9 2.6l1.9 21.3c0.5 5.1 3.5 9.5 8 11.8 10.2 5.1 16.7 15.5 16.6 26.8v4.5c0 14.6-11.8 26.4-26.3 26.4h-43.9v5.8c0 17.8-14.4 32.3-32.2 32.3-17.8 0-32.2-14.5-32.2-32.3zm17.6 0c0 8.1 6.5 14.7 14.6 14.7 8.1 0 14.6-6.6 14.6-14.7v-5.8h-29.2zm88.4-120.1c-6.4-0.4-12.6-2.3-18.2-5.5l-0.5-5.6c-1.2-14.5-8.2-27.9-19.3-37.3 1.1-6 3.6-11.7 7.2-16.6 16.9 12.3 27.7 31.4 29.6 52.3l1.2 12.6z"/>
	</g>
</svg>